<?xml version="1.0" encoding="UTF-8" standalone="no"?>
<svg
   xmlns:dc="http://purl.org/dc/elements/1.1/"
   xmlns:cc="http://creativecommons.org/ns#"
   xmlns:rdf="http://www.w3.org/1999/02/22-rdf-syntax-ns#"
   xmlns:svg="http://www.w3.org/2000/svg"
   xmlns="http://www.w3.org/2000/svg"
   xmlns:sodipodi="http://sodipodi.sourceforge.net/DTD/sodipodi-0.dtd"
   xmlns:inkscape="http://www.inkscape.org/namespaces/inkscape"
   width="1200px"
   height="100px"
   viewBox="0 0 210 297"
   version="1.1"
   id="svg8"
   inkscape:version="1.0 (4035a4fb49, 2020-05-01)"
   sodipodi:docname="footer.svg">
  <defs
     id="defs2" />
  <sodipodi:namedview
     id="base"
     pagecolor="#ffffff"
     bordercolor="#666666"
     borderopacity="1.0"
     inkscape:pageopacity="0.0"
     inkscape:pageshadow="2"
     inkscape:zoom="0.35"
     inkscape:cx="378.44102"
     inkscape:cy="639.75727"
     inkscape:document-units="mm"
     inkscape:current-layer="layer1"
     inkscape:document-rotation="0"
     showgrid="true"
     inkscape:window-width="1280"
     inkscape:window-height="720"
     inkscape:window-x="0"
     inkscape:window-y="0"
     inkscape:window-maximized="0">
    <inkscape:grid
       type="xygrid"
       id="grid10" />
  </sodipodi:namedview>
  <metadata
     id="metadata5">
    <rdf:RDF>
      <cc:Work
         rdf:about="">
        <dc:format>image/svg+xml</dc:format>
        <dc:type
           rdf:resource="http://purl.org/dc/dcmitype/StillImage" />
        <dc:title />
      </cc:Work>
    </rdf:RDF>
  </metadata>
  <g
     inkscape:label="Layer 1"
     inkscape:groupmode="layer"
     id="layer1">
    <rect
       style="opacity:0.819355;fill:#f3e8e2;stroke-width:0.264583"
       id="rect12"
       width="211.66666"
       height="275.16666"
       x="0"
       y="0" />
    <circle
       style="opacity:0.819355;fill:#f3e8e2;stroke-width:0.264583"
       id="path14"
       cx="10.961309"
       cy="275.26114"
       r="10.583333" />
    <circle
       r="10.583333"
       cy="275.07217"
       cx="29.009674"
       id="path14-4"
       style="opacity:0.819355;fill:#f3e8e2;stroke-width:0.264583" />
    <circle
       r="10.583333"
       cy="275.26114"
       cx="47.625"
       id="path14-46"
       style="opacity:0.819355;fill:#f3e8e2;stroke-width:0.264583" />
    <circle
       style="opacity:0.819355;fill:#f3e8e2;stroke-width:0.264583"
       id="path14-4-7"
       cx="65.673363"
       cy="275.07217"
       r="10.583333" />
    <circle
       r="10.583333"
       cy="275.63913"
       cx="83.334251"
       id="path14-2"
       style="opacity:0.819355;fill:#f3e8e2;stroke-width:0.264583" />
    <circle
       style="opacity:0.819355;fill:#f3e8e2;stroke-width:0.264583"
       id="path14-4-3"
       cx="101.38261"
       cy="275.45016"
       r="10.583333" />
    <circle
       style="opacity:0.819355;fill:#f3e8e2;stroke-width:0.264583"
       id="path14-46-2"
       cx="119.99794"
       cy="275.63913"
       r="10.583333" />
    <circle
       r="10.583333"
       cy="275.45016"
       cx="136.91237"
       id="path14-4-7-1"
       style="opacity:0.819355;fill:#f3e8e2;stroke-width:0.264583" />
    <circle
       r="10.583333"
       cy="275.63913"
       cx="154.97023"
       id="path14-7"
       style="opacity:0.819355;fill:#f3e8e2;stroke-width:0.264583" />
    <circle
       style="opacity:0.819355;fill:#f3e8e2;stroke-width:0.264583"
       id="path14-4-0"
       cx="173.0186"
       cy="275.45016"
       r="10.583333" />
    <circle
       style="opacity:0.819355;fill:#f3e8e2;stroke-width:0.264583"
       id="path14-46-4"
       cx="191.63393"
       cy="275.63913"
       r="10.583333" />
    <circle
       r="10.583333"
       cy="275.45016"
       cx="209.6823"
       id="path14-4-7-4"
       style="opacity:0.819355;fill:#f3e8e2;stroke-width:0.264583" />
    <path
       transform="scale(0.26458333)"
       id="path56"
       d="M 1.5437449,517.61441 1.2981657,-0.2427281 H 399.86959 798.44102 V 501.18584 1002.6144 h -8.71331 c -10.29269,0 -24.00186,6.5389 -28.45337,13.5714 -2.32009,3.6653 -3.5724,4.0263 -4.69129,1.3522 -2.35023,-5.617 -22.59014,-14.9236 -32.4558,-14.9236 -10.16068,0 -22.01788,5.4966 -29.36111,13.6108 -5.02717,5.5549 -5.20869,5.5056 -14.70755,-3.9932 -8.53165,-8.5317 -11.35062,-9.6176 -24.9666,-9.6176 -12.8198,0 -17.05297,1.4046 -25.68974,8.5237 -9.15977,7.5503 -10.76028,8.0182 -14.01431,4.0973 -13.61772,-16.40827 -46.009,-16.38587 -59.64235,0.041 -3.2976,3.9734 -4.787,3.52 -13.46274,-4.0974 -12.96266,-11.38133 -34.98768,-12.19179 -48.01697,-1.7668 l -8.46089,6.7696 -10.80351,-7.1494 c -9.09463,-6.0186 -13.15271,-6.9237 -25.65514,-5.7224 -11.85606,1.1392 -16.3796,3.1372 -22.42692,9.9053 l -7.57528,8.4782 -10.4096,-9.5397 c -9.05603,-8.2991 -12.37375,-9.5396 -25.51486,-9.5396 -12.54926,0 -16.85506,1.4423 -25.446,8.5237 -9.42094,7.7655 -10.68603,8.1074 -14.22243,3.8432 -5.12906,-6.1847 -20.29823,-12.3754 -30.21846,-12.3325 -4.37191,0.02 -13.4072,3.1553 -20.07842,6.9696 l -12.12952,6.9353 -8.16257,-6.8684 c -15.93323,-13.40691 -45.87954,-10.86189 -55.61465,4.7265 -3.0552,4.8922 -3.67899,4.7713 -10.85506,-2.1038 -14.47445,-13.86744 -39.19641,-13.84359 -53.70005,0.052 l -7.84464,7.5156 -5.49629,-6.1677 c -6.64471,-7.4563 -21.1968,-13.95033 -31.26068,-13.95033 -9.179164,0 -24.419004,7.65823 -29.464061,14.80603 -3.660023,5.1855 -4.003458,5.1249 -9.330392,-1.6472 C 52.701811,991.43804 12.323091,1000.2901 4.2536615,1027.241 2.8493546,1031.9312 1.6836889,812.71619 1.5437449,517.61441 Z"
       style="opacity:0.819355;fill:#f3e8e2;stroke-width:2.85714" />
    <path
       transform="scale(0.26458333)"
       id="path58"
       d="m 238.79264,1076.6569 c -5.30661,-1.1223 -12.67072,-5.0629 -16.36468,-8.7569 -5.52739,-5.5273 -6.40855,-8.6127 -4.97779,-17.4295 l 1.73852,-10.7132 h 28.1976 c 25.89207,0 28.19759,0.4481 28.19759,5.4806 0,7.3475 2.90961,14.5194 5.8905,14.5194 1.3321,0 3.2662,-4.5 4.29801,-10 l 1.87601,-10 h 28.25345 c 27.38216,0 28.25481,0.1982 28.29721,6.4285 0.0507,7.456 4.30694,15.3245 6.34694,11.7337 0.76488,-1.3464 2.2358,-5.9837 3.26872,-10.3051 l 1.87803,-7.8571 h 29.94556 c 16.47006,0 29.79332,0.9643 29.60722,2.1428 -0.18608,1.1786 -0.18608,5.2929 0,9.1429 0.41297,8.5439 6.09874,4.2454 6.80613,-5.1455 0.43935,-5.8325 1.86417,-6.1402 28.42595,-6.1402 27.30559,0 27.96341,0.1552 27.96341,6.5967 0,3.6283 1.75933,9.0028 3.90962,11.9435 3.78603,5.1777 4.01181,5.1558 7.14285,-0.6946 1.77829,-3.3228 3.23325,-8.7456 3.23325,-12.0507 0,-5.7313 1.2147,-5.9714 26.25365,-5.1879 l 26.25363,0.8215 2.69735,10 2.69731,10 3.62986,-8.5714 c 1.9964,-4.7143 3.00694,-9.5818 2.24563,-10.8168 -0.76135,-1.2349 11.8886,-1.8778 28.11097,-1.4286 l 29.49523,0.8168 1.45102,8.4095 c 1.95198,11.3125 6.94969,10.9701 8.06066,-0.5523 l 0.89532,-9.2857 h 29.46182 29.46183 l 1.75217,8.7608 c 2.00595,10.0298 7.53355,8.7189 7.53355,-1.7866 0,-6.9467 0.11734,-6.9742 29.68203,-6.9742 h 29.68202 l 1.876,10 c 1.0318,5.5 3.0452,10 4.47423,10 1.42903,0 3.44243,-4.5 4.47423,-10 l 1.876,-10 h 18.25346 18.25346 v -18.8345 -18.8344 l 8.98705,5.263 c 14.0402,8.2222 20.06057,18.2892 20.06057,33.5443 0,15.5152 -5.44968,25.3227 -18.48857,33.273 -15.32771,9.3459 -31.98937,6.9664 -47.00685,-6.7132 l -6.44783,-5.8733 -8.7398,8.3732 c -7.63932,7.319 -10.85475,8.3733 -25.53635,8.3733 -15.06511,0 -17.77988,-0.9531 -26.33582,-9.2458 l -9.53923,-9.2458 -9.24583,9.2458 c -8.10077,8.1008 -11.1242,9.2458 -24.41326,9.2458 -12.10917,0 -17.22491,-1.5693 -25.37123,-7.7828 -9.035,-6.8913 -10.622,-7.2788 -13.8552,-3.383 -13.58863,16.3733 -45.99808,16.3458 -59.60585,-0.051 -3.2952,-3.9705 -4.59115,-3.6949 -12.01886,2.5551 -14.74937,12.4108 -37.3122,12.9293 -49.93907,1.1478 -6.06159,-5.6558 -6.07816,-5.6542 -16.82728,1.6403 -17.59763,11.9421 -42.8304,8.45 -53.9818,-7.4709 l -4.36637,-6.2339 -5.85175,7.4393 c -12.37187,15.7283 -39.97848,17.3206 -54.76057,3.1584 l -8.1062,-7.7662 -6.44781,5.8734 c -18.92469,17.2386 -44.53343,16.4256 -58.3604,-1.8529 -2.94897,-3.8984 -4.17425,-3.6342 -10.43813,2.2503 -8.58667,8.0667 -22.82785,11.5621 -35.86909,8.804 z"
       style="opacity:0.819355;fill:#f3e8e2;stroke-width:2.85714" />
    <path
       transform="scale(0.26458333)"
       id="path60"
       d="m 301.29817,1077.7467 c -2.35715,-0.8577 -7.65078,-4.6904 -11.76366,-8.5171 l -7.47792,-6.9577 -10.77792,7.3141 c -14.78716,10.0349 -34.63625,10.1698 -45.27758,0.3077 -4.15804,-3.8535 -7.56007,-8.4294 -7.56007,-10.1686 0,-1.7392 -1.15099,-2.4509 -2.55775,-1.5814 -2.9243,1.8073 -6.01368,-4.8227 -6.01368,-12.9058 0,-5.0521 -2.3279,-5.4806 -29.77298,-5.4806 h -29.77298 l -1.88808,8.5963 c -2.1704,9.8818 -7.13738,8.7529 -7.13738,-1.6221 0,-6.9461 -0.11969,-6.9742 -29.64286,-6.9742 H 82.012451 l -1.714285,8.5714 c -0.942857,4.7143 -3.064286,8.5714 -4.714286,8.5714 -1.65,0 -3.771429,-3.8571 -4.714286,-8.5714 l -1.714285,-8.5714 -33.214286,-3e-4 -33.2142858,-3e-4 L 1.6950377,519.75696 0.66333832,-0.2427281 H 399.55219 798.44102 V 500.53613 1001.315 l 10.46932,5.638 c 13.13171,7.072 20.93474,19.61 20.94857,33.6604 0.0143,15.4213 -6.8434,26.723 -20.42069,33.6496 -14.24923,7.2695 -27.84711,5.6314 -41.91865,-5.0498 l -9.49289,-7.2056 -6.53206,6.1366 c -14.92591,14.0221 -42.13685,13.4176 -55.90897,-1.2422 l -6.76888,-7.2051 -7.5458,7.2293 c -14.34246,13.7409 -35.77629,14.563 -53.35432,2.0464 l -8.10434,-5.7708 -8.54277,6.8374 c -15.57397,12.4651 -42.065,11.7616 -54.00697,-1.4341 -4.8738,-5.3855 -5.22278,-5.3276 -18.81406,3.1212 -11.78437,7.3255 -15.57192,8.3172 -25.41512,6.6542 -6.36185,-1.0748 -14.79065,-4.4899 -18.73065,-7.5891 l -7.16363,-5.635 -12.62717,7.4001 c -17.52523,10.2704 -41.39863,6.8769 -51.32555,-7.2957 l -4.40268,-6.2858 -8.96257,8.9626 c -4.9294,4.9294 -11.11363,9.0697 -13.74275,9.2006 -2.62914,0.1309 -7.99451,0.6 -11.92308,1.0424 -9.19977,1.0358 -19.75689,-2.9523 -27.8272,-10.5121 -5.93709,-5.5615 -6.769,-5.6587 -11.53314,-1.3473 -11.24975,10.1809 -31.96398,15.622 -43.4968,11.4255 z m 239.28571,-37.1018 c -2.75,-0.7186 -7.25,-0.7186 -10,0 -2.75,0.7187 -0.5,1.3067 5,1.3067 5.5,0 7.75,-0.588 5,-1.3067 z"
       style="opacity:0.819355;fill:#f3e8e2;stroke-width:2.85714" />
    <path
       transform="scale(0.26458333)"
       id="path62"
       d="m 299.09197,1076.7877 c -3.57055,-1.4341 -7.20566,-4.4675 -8.07803,-6.7409 -2.70052,-7.0374 -9.67926,-7.6304 -17.9382,-1.5244 -9.24373,6.8342 -31.93722,9.4843 -41.99083,4.9036 -3.81128,-1.7366 -6.9296,-4.1018 -6.9296,-5.256 0,-1.1543 -3.19208,-5.1265 -7.0935,-8.8271 -3.90142,-3.7007 -7.1157,-9.6213 -7.14285,-13.1571 -0.048,-6.251 -0.86911,-6.4285 -29.73963,-6.4285 -29.28678,0 -29.71462,0.097 -31.483,7.1428 -1.79815,7.1644 -8.05534,10.2747 -7.18489,3.5715 1.32834,-10.2294 -0.0229,-10.7143 -29.85613,-10.7143 H 82.012451 l -1.714285,8.5714 c -2.191795,10.959 -6.58346,11.0024 -8.98048,0.089 L 69.454606,1039.935 36.28708,1039.1319 3.119556,1038.3287 2.0393489,519.04299 0.95914203,-0.2427281 H 399.70008 798.44102 l 0.22515,502.1428581 c 0.12371,276.17857 0.34157,509.85717 0.48394,519.28567 l 0.25886,17.1429 1.08097,-16.4286 c 1.2664,-19.2467 4.66034,-20.7083 17.73234,-7.6364 32.89789,32.8979 -10.83089,83.64 -48.78769,56.6123 -4.47505,-3.1864 -8.13642,-7.2158 -8.13642,-8.9542 0,-1.7383 -2.9104,-0.4264 -6.46758,2.9154 -16.67077,15.6613 -40.4006,17.1378 -56.37085,3.5075 l -9.40877,-8.0303 -11.44795,8.2929 c -15.09511,10.9348 -33.26211,11.4005 -48.2204,1.2361 -8.95725,-6.0866 -10.86045,-6.4837 -13.84411,-2.8886 -1.9026,2.2925 -4.59929,3.4636 -5.99266,2.6024 -1.39337,-0.8612 -2.54343,-0.5256 -2.55568,0.7457 -0.0437,4.5343 -14.06458,8.7129 -25.87529,7.7116 -6.86311,-0.5819 -15.8234,-3.8977 -20.91249,-7.7387 l -8.90422,-6.7207 -12.85715,8.2834 c -10.6516,6.8624 -14.81763,7.9924 -24.28571,6.5872 -6.28572,-0.9329 -15.01317,-4.3039 -19.39437,-7.491 l -7.9658,-5.7949 -9.83923,6.081 c -5.4116,3.3445 -11.1484,5.2719 -12.74849,4.283 -1.60008,-0.989 -2.90925,-0.3782 -2.90925,1.3572 0,7.5872 -34.39172,-4.1444 -39.67023,-13.5322 -2.53723,-4.5125 -3.69869,-4.0946 -11.9096,4.2856 -8.57637,8.7531 -11.5848,9.9206 -25.56303,9.9206 -11.34083,0 -13.6466,-0.7423 -23.88366,-7.6894 -9.77397,-6.6327 -18.97348,-7.1383 -18.97348,-1.0426 0,1.496 -1.28572,1.9255 -2.85715,0.9543 -1.57143,-0.9712 -2.85714,-0.53 -2.85714,0.9804 0,3.3222 -15.66046,9.09 -23.99777,8.8385 -3.30123,-0.1 -8.92357,-1.3545 -12.49414,-2.7885 z m 238.57525,-35.8995 c -0.94943,-0.9494 -3.41371,-1.0509 -5.4762,-0.2254 -2.27923,0.912 -1.60223,1.5891 1.7262,1.7262 3.01189,0.124 4.6994,-0.5513 3.75,-1.5007 z"
       style="opacity:0.819355;fill:#f3e8e2;stroke-width:2.85714" />
    <path
       transform="scale(0.26458333)"
       id="path64"
       d="m 301.29817,1077.7467 c -2.35715,-0.8577 -7.7024,-4.7399 -11.87832,-8.627 l -7.59263,-7.0675 -8.77327,6.4864 c -5.5281,4.087 -13.65844,6.7621 -21.98018,7.2319 -13.47025,0.7604 -26.91846,-3.338 -26.91846,-8.2035 0,-1.4859 -3.12822,-5.1623 -6.9516,-8.1698 -3.82338,-3.0074 -7.3591,-8.3353 -7.85714,-11.8397 -0.85968,-6.0489 -2.37191,-6.4127 -29.85736,-7.1822 -28.88334,-0.8086 -28.95612,-0.7934 -30.76872,6.4286 -1.81525,7.2325 -8.08626,10.4229 -7.20905,3.6677 1.32834,-10.2294 -0.0229,-10.7143 -29.85613,-10.7143 H 82.012451 l -1.921322,9.2857 c -1.831875,8.8534 -2.114538,9.0275 -6.071429,3.7396 -2.282557,-3.0503 -4.150106,-7.1881 -4.150106,-9.195 0,-2.7078 -8.658817,-3.8566 -33.571428,-4.4539 L 2.7267372,1038.3287 1.8726877,519.04299 1.0186383,-0.2427281 H 399.72982 798.44102 V 501.05179 1002.3463 l 9.95497,4.7239 c 13.44095,6.3782 21.91149,20.6176 21.04098,35.371 -0.37652,6.381 -1.62949,11.6018 -2.7844,11.6018 -1.15489,0 -2.51069,2.8581 -3.01283,6.3513 -0.56103,3.9029 -5.31866,8.8458 -12.34157,12.8221 -14.40546,8.1562 -29.54878,6.8854 -43.34492,-3.6374 l -9.92657,-7.5714 -6.48849,6.0956 c -13.63062,12.8053 -38.85854,13.0689 -53.19051,0.5557 l -9.43911,-8.2413 -11.37675,8.2413 c -17.3634,12.5779 -43.91645,10.4422 -53.91637,-4.3367 -1.25326,-1.8522 -3.84846,-1.259 -7.14286,1.6327 -9.6194,8.4434 -22.75157,13.4651 -32.77608,12.5335 -10.34889,-0.9619 -26.45852,-8.029 -29.49249,-12.938 -1.65923,-2.6847 -12.24257,1.4433 -15.82114,6.171 -6.69266,8.8416 -31.08243,8.5786 -43.31751,-0.4671 l -7.77926,-5.7515 -10.0428,5.9254 c -5.52354,3.259 -11.37083,5.1046 -12.99397,4.1015 -1.62315,-1.0032 -2.95117,-0.736 -2.95117,0.5938 0,3.7899 -11.99055,3.8883 -21.42858,0.176 -4.71428,-1.8543 -11.42662,-6.6175 -14.91631,-10.5849 l -6.34486,-7.2132 -8.70543,8.9041 c -12.75542,13.0465 -28.58345,14.2529 -46.49017,3.5435 -12.2938,-7.3526 -22.11465,-8.5183 -22.11465,-2.6248 0,3.1794 -21.72529,11.4772 -29.34355,11.2075 -3.50391,-0.124 -8.29931,-0.9273 -10.65645,-1.785 z"
       style="opacity:0.819355;fill:#f3e8e2;stroke-width:2.85714" />
    <path
       transform="scale(0.26458333)"
       id="path66"
       d="m 291.75745,1071.2058 -9.73951,-8.5514 -7.59409,5.9735 c -4.89188,3.848 -13.40734,6.4867 -23.93131,7.4156 -15.87481,1.4013 -16.68093,1.1228 -28.48009,-9.8403 -6.67857,-6.2054 -12.14286,-13.3326 -12.14286,-15.8384 0,-7.0462 -4.55406,-8.471 -31.76307,-9.9373 -25.14531,-1.3552 -25.27123,-1.3277 -28.10556,6.1271 -3.58862,9.4388 -7.55893,9.5777 -9.87606,0.3455 -1.76146,-7.0182 -2.28709,-7.1428 -30.11996,-7.1428 H 81.677723 l -0.904066,7.6368 c -1.27688,10.786 -6.843668,11.3541 -10.430671,1.0644 l -3.03328,-8.7012 H 34.338714 1.3677237 L 1.3213517,519.75727 1.2749797,-0.2427281 H 399.85799 798.44102 V 500.53613 1001.315 l 10.46932,5.638 c 29.07537,15.6582 27.48845,57.3664 -2.63329,69.2109 -13.60937,5.3515 -27.70528,2.8815 -39.31754,-6.8896 l -8.79257,-7.3985 -6.29152,5.8933 c -16.61723,15.5653 -42.40737,14.6229 -57.54391,-2.1028 l -5.47414,-6.0489 -8.7796,8.4553 c -12.27983,11.8263 -28.88518,13.2085 -47.46272,3.9509 l -13.89926,-6.9262 -8.27022,6.1144 c -15.38189,11.3723 -36.87986,10.0918 -55.19983,-3.2881 -3.72295,-2.719 -6.3932,-2.117 -13.7052,3.0896 -13.66589,9.7309 -27.77523,10.5002 -43.01977,2.3454 l -12.77743,-6.835 -11.50829,6.5824 c -6.32957,3.6203 -15.08531,6.5978 -19.45723,6.6167 -10.33297,0.045 -24.99654,-6.2425 -31.43834,-13.4798 -5.07883,-5.706 -5.14014,-5.6954 -13.77609,2.3717 -4.771,4.4568 -12.99865,8.9145 -18.28365,9.906 -10.72215,2.0115 -27.70669,-2.5797 -32.96,-8.9096 -4.67215,-5.6296 -7.62877,-5.2571 -23.93437,3.0153 -19.02869,9.6539 -30.44826,9.2733 -42.62792,-1.4206 z"
       style="opacity:0.819355;fill:#f3e8e2;stroke-width:2.85714" />
    <path
       transform="scale(0.26458333)"
       id="path68"
       d="m 293.63537,1072.9405 c -10.28152,-8.6513 -14.25847,-9.2015 -21.18686,-2.9314 -2.81567,2.5481 -12.44404,5.2112 -21.96118,6.0742 -16.41681,1.4886 -17.31224,1.207 -28.60653,-8.9967 -6.41258,-5.7934 -12.05986,-13.3309 -12.54951,-16.75 -0.99726,-6.9638 -12.70616,-10.1566 -38.03312,-10.3709 -15.55297,-0.1317 -19.45022,1.4575 -22.2616,9.0773 -2.2366,6.062 -7.7384,6.6413 -7.7384,0.8148 0,-6.8733 -8.64324,-9.3472 -34.60941,-9.9057 l -24.6094,-0.5294 -1.74774,8.7387 c -2.21854,11.0927 -6.202123,11.1591 -10.033897,0.1673 l -2.988017,-8.5714 H 34.303937 1.2981657 V 519.75727 -0.2427281 H 399.86959 798.44102 l 0.0229,500.7142881 0.0229,500.71424 11.36491,6.49 c 15.03989,8.5884 21.03634,20.4954 19.31957,38.3622 -2.96794,30.8879 -37.70991,43.8518 -62.22885,23.2204 l -8.81146,-7.4143 -7.70123,7.3044 c -14.64926,13.8944 -40.7364,12.7686 -54.96023,-2.372 l -6.67068,-7.1006 -9.45235,9.1615 c -7.95703,7.7123 -11.61094,9.1616 -23.09711,9.1616 -8.90837,0 -17.66697,-2.2606 -25.2322,-6.5125 l -11.58743,-6.5125 -10.89217,7.3916 c -14.70932,9.982 -31.23043,9.9577 -46.00383,-0.068 -9.51903,-6.4598 -11.7742,-6.9662 -16.82729,-3.779 -21.20397,13.3746 -29.38928,14.1719 -47.44882,4.6218 l -12.51252,-6.6168 -11.50828,6.5823 c -17.95803,10.2714 -33.82158,8.5166 -49.15829,-5.4378 l -6.2214,-5.6607 -10.1254,7.723 c -14.21643,10.8434 -28.25354,11.5796 -46.49369,2.4384 l -14.77614,-7.4053 -8.69428,6.1909 c -4.78189,3.405 -14.89526,6.9253 -22.47423,7.8229 -12.00335,1.4216 -14.92429,0.6691 -22.65626,-5.8369 z"
       style="opacity:0.819355;fill:#f3e8e2;stroke-width:2.85714" />
    <path
       transform="scale(0.26458333)"
       id="path70"
       d="m 292.88594,1072.8501 c -11.49903,-8.6219 -13.71004,-8.9292 -20.43743,-2.841 -2.81567,2.5481 -12.44404,5.2112 -21.96118,6.0742 -16.42848,1.4897 -17.30586,1.2128 -28.66051,-9.0455 -6.44228,-5.8202 -12.45993,-12.9348 -13.37256,-15.8102 -2.21064,-6.9652 -7.77354,-8.8392 -30.77843,-10.369 -18.19353,-1.2099 -19.76606,-0.8225 -26.60124,6.5528 -7.20412,7.7734 -9.8341,7.1814 -13.4238,-3.0213 -0.48572,-1.3805 -13.17003,-3.1527 -28.18737,-3.9382 l -27.304251,-1.4282 -1.787646,8.9382 c -2.255537,11.2777 -6.219923,11.4221 -10.0738,0.3668 l -2.988017,-8.5714 H 34.303937 1.2981657 V 519.75727 -0.2427281 H 399.86959 798.44102 l 0.0903,500.7142881 0.0903,500.71424 12.80472,7.7708 c 15.01751,9.1137 19.43023,18.4311 17.67591,37.3225 -2.84445,30.6307 -37.73848,43.53 -62.16163,22.9793 l -8.81145,-7.4143 -7.831,7.5025 c -15.11829,14.4843 -41.0608,12.7905 -55.94146,-3.6525 l -5.49937,-6.0767 -9.48252,9.1908 c -7.98865,7.7429 -11.63205,9.1908 -23.12725,9.1908 -8.90837,0 -17.66697,-2.2606 -25.2322,-6.5125 l -11.58743,-6.5125 -10.89217,7.3916 c -14.52152,9.8546 -31.24766,9.946 -45.53723,0.2489 -5.78909,-3.9286 -11.17957,-7.1429 -11.97886,-7.1429 -0.79931,0 -6.18351,3.2143 -11.96494,7.1429 -12.72886,8.6495 -22.42037,8.9827 -40.09643,1.3787 l -13.39914,-5.7642 -11.30606,5.7642 c -18.33103,9.3457 -34.19617,7.3052 -49.17637,-6.3249 l -6.2214,-5.6606 -10.10023,7.7038 c -15.1926,11.5879 -29.4928,12.4433 -46.66377,2.791 l -14.09974,-7.9259 -8.41243,6.2196 c -4.70292,3.477 -14.68289,6.928 -22.63246,7.8261 -12.26714,1.3859 -15.57146,0.5932 -24.0608,-5.7721 z"
       style="opacity:0.819355;fill:#f3e8e2;stroke-width:2.85714" />
    <path
       transform="scale(0.26458333)"
       id="path72"
       d="m 291.84342,1072.5958 c -10.47751,-7.2781 -11.15685,-7.3807 -18.22038,-2.7525 -4.03539,2.6441 -14.87929,5.4913 -24.09755,6.3272 l -16.76046,1.5198 -12.162,-12.8529 c -6.6891,-7.069 -13.81984,-14.9611 -15.84608,-17.5379 -3.40903,-4.3353 -8.75871,-5.2046 -32.03021,-5.2046 -15.32815,0 -16.84693,0.4408 -22.52702,6.5377 -5.67166,6.0878 -11.7587,5.3144 -11.7587,-1.4941 0,-3.7136 -22.7457,-7.3812 -45.776257,-7.3812 -9.550189,0 -10.829677,0.8868 -12.366597,8.5714 -0.942857,4.7143 -2.87616,8.5714 -4.296229,8.5714 -1.420066,0 -4.179623,-3.8571 -6.132343,-8.5714 l -3.550403,-8.5714 H 33.80868 1.2981657 V 519.75727 -0.2427281 H 399.86959 798.44102 l 0.0229,500.7142881 0.0229,500.71424 11.36491,6.49 c 15.18377,8.6706 21.0396,20.4616 19.2762,38.8135 -1.10691,11.5201 -3.14151,15.9315 -10.296,22.324 -15.68,14.0101 -35.56568,14.1807 -51.88948,0.4451 l -8.81146,-7.4143 -8.60312,8.2423 c -7.48702,7.1714 -10.78345,8.2423 -25.37248,8.2423 -14.39906,0 -17.92612,-1.1099 -24.96874,-7.8571 -10.04406,-9.6229 -12.28303,-9.7223 -20.55906,-0.9128 -10.22952,10.8888 -25.58246,12.0712 -44.469,3.4246 l -15.84414,-7.2537 -10.33538,7.0138 c -13.60454,9.2323 -30.04311,9.2728 -45.17882,0.1114 l -11.35515,-6.8731 -11.75303,6.8878 c -14.3248,8.3949 -23.25822,8.6413 -40.73365,1.1235 l -13.39915,-5.7641 -11.30605,5.7641 c -18.33103,9.3457 -34.19617,7.3052 -49.17637,-6.3248 l -6.2214,-5.6607 -9.94158,7.5828 c -15.17025,11.5709 -27.41862,12.3934 -45.83091,3.0777 l -15.45746,-7.8208 -8.22934,6.0842 c -4.56094,3.3721 -14.5682,6.7841 -22.44934,7.6543 -12.20032,1.347 -15.76577,0.4962 -25.10332,-5.99 z"
       style="opacity:0.819355;fill:#f3e8e2;stroke-width:2.85714" />
    <path
       transform="scale(0.26458333)"
       id="path74"
       d="m 291.84342,1072.5958 c -10.47751,-7.2781 -11.15685,-7.3807 -18.22038,-2.7525 -4.03539,2.6441 -14.98453,5.5009 -24.33141,6.3484 l -16.99433,1.541 -15.89559,-16.8093 -15.89559,-16.8094 -21.22019,-1.0715 c -19.16649,-0.9679 -21.9156,-0.4183 -28.40567,5.6787 -6.65666,6.2536 -7.44785,6.3916 -10.75053,1.8749 -4.2412,-5.8001 -23.4915,-10.6719 -42.551621,-10.769 -12.701186,-0.064 -13.941949,0.5667 -16.708072,8.5016 -1.643408,4.7143 -4.214837,8.5714 -5.714286,8.5714 -1.499448,0 -4.070877,-3.8571 -5.714285,-8.5714 l -2.988015,-8.5714 H 33.875809 1.2981657 V 519.75727 -0.2427281 H 399.86959 798.44102 l 0.0229,500.7142881 0.0229,500.71424 11.36491,6.49 c 15.23052,8.6973 21.00552,20.3581 19.05732,38.4802 -3.2848,30.5549 -32.70006,43.0368 -59.30829,25.1665 l -12.55909,-8.4348 -8.05845,7.7205 c -6.88729,6.5968 -10.50072,7.7205 -24.82783,7.7205 -14.39906,0 -17.92612,-1.1099 -24.96874,-7.8571 -9.9836,-9.5649 -10.5524,-9.5922 -19.87063,-0.9518 -12.91823,11.9784 -36.01775,11.9647 -53.45752,-0.032 -4.6692,-3.2118 -7.13308,-2.7495 -17.39388,3.2637 -15.44195,9.0496 -30.82649,9.0844 -45.66437,0.1031 l -11.35515,-6.873 -11.75303,6.8877 c -14.3248,8.3949 -23.25822,8.6413 -40.73365,1.1235 l -13.39915,-5.7641 -11.30605,5.7641 c -18.33103,9.3457 -34.19617,7.3052 -49.17637,-6.3248 l -6.2214,-5.6607 -10.10023,7.7038 c -14.57732,11.1187 -28.54577,12.0989 -45.86703,3.2188 l -14.12432,-7.2412 -9.25011,5.7169 c -5.08757,3.1442 -15.44591,6.3993 -23.01854,7.2334 -11.68257,1.2867 -15.41717,0.3712 -24.65172,-6.0435 z"
       style="opacity:0.819355;fill:#f3e8e2;stroke-width:2.85714" />
    <path
       transform="scale(0.26458333)"
       id="path76"
       d="m 291.84342,1072.5958 c -10.5226,-7.3094 -11.12959,-7.3986 -18.31481,-2.6906 -4.08733,2.6781 -15.28349,5.4996 -24.88035,6.2699 l -17.44884,1.4006 -15.40079,-16.6984 -15.4008,-16.6984 -19.81985,-1.1199 c -16.8721,-0.9534 -21.0545,-0.2072 -28.12126,5.0176 l -8.30141,6.1374 -7.85714,-5.8047 c -6.07872,-4.4909 -12.99231,-5.9654 -30.54439,-6.5141 -21.907169,-0.685 -22.744911,-0.471 -24.364523,6.2217 -2.491997,10.2977 -8.350968,10.5297 -11.857957,0.4695 l -3.077849,-8.8291 H 33.875809 1.2981657 V 519.75727 -0.2427281 H 399.86959 798.44102 l 0.0229,500.7142881 0.0229,500.71424 11.36491,6.49 c 15.23052,8.6973 21.00552,20.3581 19.05732,38.4802 -3.2848,30.5549 -32.70006,43.0368 -59.30829,25.1665 l -12.55909,-8.4348 -8.05845,7.7205 c -6.88729,6.5968 -10.50072,7.7205 -24.82783,7.7205 -14.39906,0 -17.92612,-1.1099 -24.96874,-7.8571 -9.9836,-9.5649 -10.5524,-9.5922 -19.87063,-0.9518 -12.91823,11.9784 -36.01775,11.9647 -53.45752,-0.032 -4.6692,-3.2118 -7.13308,-2.7495 -17.39388,3.2637 -15.44195,9.0496 -30.82649,9.0844 -45.66437,0.1031 l -11.35515,-6.873 -11.75303,6.8877 c -14.38922,8.4326 -26.445,8.7269 -41.56274,1.0144 l -11.51268,-5.8734 -12.13269,5.8734 c -19.34666,9.3655 -34.358,7.477 -49.40711,-6.2157 l -6.2214,-5.6607 -10.10023,7.7038 c -14.57732,11.1187 -28.54577,12.0989 -45.86703,3.2188 l -14.12432,-7.2412 -9.25011,5.7169 c -5.08757,3.1442 -15.44591,6.3993 -23.01854,7.2334 -11.68257,1.2867 -15.41717,0.3712 -24.65172,-6.0435 z"
       style="opacity:0.819355;fill:#f3e8e2;stroke-width:2.85714" />
    <path
       transform="scale(0.26458333)"
       id="path78"
       d="m 291.45017,1073.082 c -10.30993,-6.4048 -11.83191,-6.6414 -17.755,-2.7605 -3.56314,2.3347 -14.33368,4.9571 -23.93452,5.8277 l -17.45608,1.5829 -16.82534,-16.6498 -16.82534,-16.6498 -21.017,-0.1949 c -16.38589,-0.152 -22.12047,0.907 -26.0248,4.8053 -6.13494,6.1253 -5.15014,6.1561 -16.57918,-0.5171 -5.81205,-3.3936 -15.49754,-5.6868 -25.16332,-5.9579 -24.522793,-0.6878 -25.688041,-0.3946 -28.571424,7.1893 -3.636495,9.5647 -8.216806,9.0128 -11.8567,-1.4286 l -2.988015,-8.5713 H 33.875809 1.2981657 V 519.75727 -0.2427281 H 399.86959 798.44102 V 500.53613 1001.315 l 10.20406,5.4952 c 16.63634,8.9593 22.12814,19.1003 20.37123,37.617 -1.58523,16.7073 -6.48523,24.4968 -19.71237,31.3369 -11.74297,6.0725 -25.8836,4.8922 -37.73395,-3.1497 -12.8344,-8.7096 -15.26674,-8.8147 -23.56588,-1.0181 -4.22354,3.9678 -11.33169,6.5258 -20.18414,7.2636 -13.45812,1.1216 -17.21863,-0.1812 -33.15218,-11.4859 -7.2846,-5.1684 -7.49322,-5.1412 -15.17017,1.9773 -13.0484,12.0992 -36.17743,12.4357 -52.83443,0.7686 -5.75025,-4.0276 -7.20831,-3.809 -18.42045,2.7618 -14.8354,8.6941 -31.21832,8.5379 -46.09312,-0.4394 l -10.23594,-6.1776 -11.73631,6.7119 c -14.37578,8.2213 -27.04026,8.5638 -41.62055,1.1255 l -11.08511,-5.6552 -13.51534,5.9784 c -18.03626,7.9783 -35.637,6.1647 -47.14186,-4.8577 l -8.335,-7.9854 -6.44783,5.8734 c -15.56534,14.1786 -27.6762,15.5307 -49.15834,5.4883 -14.01546,-6.5519 -14.21886,-6.5627 -23.25843,-1.2292 -5.01563,2.9593 -15.36732,6.0537 -23.00374,6.8765 -11.40586,1.229 -15.89746,0.2455 -25.161,-5.5092 z"
       style="opacity:0.819355;fill:#f3e8e2;stroke-width:2.85714" />
    <path
       transform="scale(0.26458333)"
       id="path80"
       d="m 292.76845,1073.6653 c -9.29211,-5.6645 -10.72557,-5.7923 -21.42856,-1.9094 -6.30866,2.2886 -17.79057,4.4526 -25.51535,4.8089 -13.53355,0.6241 -14.62998,0.069 -30.10642,-15.2461 l -16.06136,-15.8938 -21.7432,-0.474 c -16.9733,-0.37 -22.79248,0.5753 -26.52624,4.3091 -5.83678,5.8367 -4.11263,5.9153 -19.06286,-0.8686 -8.08885,-3.6704 -18.73941,-5.6735 -30.38273,-5.7142 -16.520653,-0.058 -18.141019,0.4979 -20.643564,7.0801 -3.636495,9.5647 -8.216806,9.0128 -11.8567,-1.4286 l -2.988015,-8.5714 H 33.875809 1.2981657 V 519.75727 -0.2427281 H 399.86959 798.44102 V 500.53613 1001.315 l 10.20406,5.4952 c 16.51186,8.8922 22.12823,19.1535 20.59606,37.6295 -1.71552,20.6869 -12.4578,32.3831 -31.73789,34.5562 -10.70034,1.2061 -15.44946,0.073 -26.27148,-6.2693 l -13.21003,-7.7416 -11.18717,7.7527 c -9.44672,6.5466 -13.35069,7.5448 -25.09363,6.4165 -9.06346,-0.8709 -17.32095,-3.9406 -23.71106,-8.8146 l -9.8046,-7.4783 -8.46357,6.8734 c -12.90217,10.4782 -29.6808,12.0177 -45.82094,4.2044 l -13.291,-6.434 -12.60938,6.1261 c -16.44302,7.9886 -31.10134,7.7818 -45.00588,-0.6349 l -11.12083,-6.7316 -11.73631,6.7119 c -14.36035,8.2125 -28.4348,8.5956 -42.32306,1.1519 -10.4894,-5.622 -10.51832,-5.6216 -23.95769,0.3233 -17.97468,7.951 -35.59268,6.1234 -47.08211,-4.8842 l -8.335,-7.9854 -6.44783,5.8734 c -15.52906,14.1455 -30.66557,15.8167 -50.28251,5.5516 l -12.40618,-6.4918 -13.07805,6.6209 c -16.2664,8.2351 -30.56997,8.4091 -43.49649,0.529 z"
       style="opacity:0.819355;fill:#f3e8e2;stroke-width:2.85714" />
    <path
       transform="scale(0.26458333)"
       id="path82"
       d="m 292.81439,1073.6932 c -9.52848,-5.8086 -10.41362,-5.863 -22.85714,-1.4037 -7.11964,2.5514 -18.77443,4.6325 -25.89954,4.6248 -11.90937,-0.013 -14.20705,-1.2822 -28.47383,-15.7285 l -15.51909,-15.7142 h -23.66902 c -13.01797,0 -23.66903,1.1481 -23.66903,2.5514 0,5.2696 -8.53394,5.4904 -21.90085,0.5668 -7.59739,-2.7985 -20.47444,-5.3784 -28.61566,-5.7331 -13.101121,-0.5708 -15.35523,0.1991 -19.614313,6.6993 -6.270826,9.5704 -9.495206,9.2696 -13.154451,-1.2273 l -2.988015,-8.5714 H 33.875809 1.2981657 V 519.75727 -0.2427281 H 399.86959 798.44102 V 501.18584 c 0,416.00443 0.64915,501.42856 3.81032,501.42856 2.09568,0 9.32534,5.0915 16.06594,11.3144 l 12.25566,11.3143 -1.2582,17.3944 c -1.0638,14.7069 -2.60949,18.7457 -10.00412,26.1403 -12.68571,12.6857 -30.22877,14.2215 -48.13423,4.214 l -13.35802,-7.466 -8.97438,6.4015 c -13.41965,9.5722 -37.2174,8.9981 -50.26428,-1.2126 l -9.72889,-7.614 -9.98248,7.614 c -12.18217,9.2918 -30.60035,10.1962 -47.98595,2.3564 -11.46888,-5.1717 -11.85034,-5.1601 -23.36505,0.7143 -15.13392,7.7208 -30.49526,7.508 -44.7906,-0.6205 l -11.42857,-6.4984 -11.42858,6.511 c -13.72288,7.818 -27.43525,8.2285 -42.85714,1.2827 -11.09148,-4.9955 -11.79934,-4.9837 -24,0.3982 -17.07174,7.5306 -34.95277,5.4828 -46.19794,-5.2908 l -8.335,-7.9854 -6.44783,5.8734 c -15.40103,14.0289 -29.18726,15.7548 -48.99109,6.1334 l -12.69614,-6.1683 -14.33851,6.1683 c -18.06183,7.77 -30.56723,7.8002 -43.19155,0.1043 z"
       style="opacity:0.819355;fill:#f3e8e2;stroke-width:2.85714" />
    <path
       transform="scale(0.26458333)"
       id="path84"
       d="m 292.81439,1073.6932 c -9.52848,-5.8086 -10.41362,-5.863 -22.85714,-1.4037 -7.11964,2.5514 -18.76832,4.6325 -25.88595,4.6248 -11.82281,-0.014 -14.33201,-1.3721 -29.0359,-15.7285 l -16.09475,-15.7142 h -20.73912 c -14.83285,0 -22.15019,1.277 -25.69388,4.4839 -4.51481,4.0859 -6.69108,3.9463 -24.51068,-1.5717 -24.84946,-7.6948 -37.550093,-6.9678 -45.972253,2.6317 -6.27892,7.1566 -6.508337,7.1945 -10.714286,1.7671 -2.363888,-3.0503 -4.29798,-7.2289 -4.29798,-9.2857 0,-2.8646 -7.688005,-3.7396 -32.857142,-3.7396 H 1.2981657 V 519.75727 -0.2427281 H 399.86959 798.44102 l 0.35715,497.1428581 c 0.19657,273.42857 0.51785,498.32431 0.71428,499.76831 0.19657,1.444 6.45226,7.27946 13.90186,12.96766 14.97134,11.4314 17.87334,18.4191 15.69091,37.7816 -1.08234,9.6026 -3.82263,15.3881 -10.40734,21.9728 -7.93323,7.9333 -10.77911,8.9382 -25.3118,8.9382 -12.54731,0 -18.5436,-1.5477 -25.65934,-6.6231 l -9.28572,-6.6232 -9.28571,6.6232 c -13.7378,9.7986 -37.38106,9.3354 -50.5756,-0.9909 l -9.72889,-7.614 -9.38365,7.1572 c -13.4108,10.2289 -28.22269,11.4788 -45.90212,3.8733 l -14.49923,-6.2374 -11.62714,5.9317 c -14.80534,7.5531 -28.42977,7.5215 -44.1222,-0.1025 l -12.42026,-6.0343 -11.82805,6.0343 c -14.24098,7.2652 -25.13795,7.6127 -40.90392,1.3044 -11.00483,-4.4033 -12.73483,-4.4023 -25.0578,0.014 -20.61494,7.3881 -32.7358,6.2353 -44.6772,-4.2494 l -10.21057,-8.965 -6.3174,5.7509 c -15.26886,13.8995 -29.117,15.6031 -48.86069,6.0109 l -12.69614,-6.1683 -14.33851,6.1683 c -18.06183,7.77 -30.56723,7.8001 -43.19155,0.1043 z"
       style="opacity:0.819355;fill:#f3e8e2;stroke-width:2.85714" />
    <path
       transform="scale(0.26458333)"
       id="path86"
       d="m 291.74748,1073.7125 c -10.33854,-5.4542 -11.63415,-5.5302 -22.20069,-1.3023 -6.17177,2.4695 -17.30253,4.4728 -24.73501,4.4519 -12.46161,-0.035 -14.78783,-1.2584 -29.88171,-15.7143 -16.28606,-15.5977 -16.45789,-15.6762 -34.28571,-15.6586 -10.43959,0.011 -21.39257,1.8297 -26.24372,4.3595 -7.48096,3.9013 -9.71862,3.8795 -22.04501,-0.2148 -23.87173,-7.9289 -38.324121,-7.7486 -48.24829,0.602 -7.036511,5.9209 -9.422174,6.6179 -12.866529,3.7593 -2.325597,-1.9299 -4.22836,-5.1426 -4.22836,-7.1392 0,-5.7524 -7.088571,-7.0987 -37.376534,-7.0987 H 1.2981657 V 519.75727 -0.2427281 H 399.84585 798.39354 l 0.73803,500.2010881 c 0.73311,496.86091 0.7762,500.22214 6.45231,503.35404 3.14286,1.7341 10.04563,7.4535 15.33951,12.7098 9.20615,9.1408 9.57098,10.307 8.37918,26.7833 -1.06446,14.7159 -2.57926,18.5596 -10.39446,26.3748 -8.16463,8.1646 -10.90914,9.1484 -25.52203,9.1484 -12.54731,0 -18.5436,-1.5477 -25.65934,-6.6231 l -9.28572,-6.6232 -8.93645,6.3634 c -5.13249,3.6546 -14.87118,6.9336 -22.87849,7.703 -11.75326,1.1293 -15.81174,0.1022 -25.85203,-6.5421 -10.4134,-6.8913 -12.65471,-7.4121 -17.83583,-4.1445 -21.0366,13.2669 -29.58368,14.1822 -50.08371,5.3633 l -13.78869,-5.9317 -11.62714,5.9317 c -14.80534,7.5531 -28.42977,7.5215 -44.1222,-0.1025 l -12.42026,-6.0343 -11.82805,6.0343 c -14.24098,7.2652 -25.13795,7.6127 -40.90392,1.3044 -11.00483,-4.4033 -12.73483,-4.4023 -25.0578,0.014 -20.61494,7.3881 -32.7358,6.2353 -44.6772,-4.2494 l -10.21057,-8.965 -6.3174,5.7509 c -15.32403,13.9497 -29.11237,15.6054 -49.09811,5.8955 l -12.93358,-6.2837 -12.93357,6.2836 c -15.94985,7.7491 -30.80403,7.8276 -45.18854,0.2389 z"
       style="opacity:0.819355;fill:#f3e8e2;stroke-width:2.85714" />
    <path
       transform="scale(0.26458333)"
       id="path88"
       d="m 24.110732,1074.4341 c -5.475483,-2.9277 -12.526852,-9.6777 -15.6697091,-15 -5.6510194,-9.5697 -5.7225266,-15.4894 -6.4586012,-534.67683 L 1.2381063,-0.2427281 H 399.83957 798.44102 l 0.0966,447.8571381 c 0.10743,497.8 0.89798,552.14209 8.09298,556.21119 2.5672,1.4518 8.99897,6.9403 14.29285,12.1966 9.20615,9.1408 9.57097,10.307 8.37917,26.7833 -1.06288,14.6943 -2.58377,18.5641 -10.34682,26.3272 -8.12495,8.1249 -10.86712,9.1008 -25.57332,9.1008 -12.50528,0 -18.64791,-1.5491 -25.50514,-6.4318 l -9.03263,-6.4319 -10.60051,7.1938 c -14.69855,9.9747 -33.1566,9.838 -48.15935,-0.3566 -9.74131,-6.6194 -11.84868,-7.0854 -17.09183,-3.779 -21.09914,13.3052 -29.62342,14.2229 -50.13845,5.3975 l -13.78869,-5.9317 -11.62714,5.9317 c -14.80677,7.5539 -29.4536,7.5319 -44.66917,-0.067 l -12.01169,-5.999 -11.75886,5.999 c -14.26531,7.2776 -23.47762,7.5408 -41.23011,1.178 -12.71263,-4.5564 -14.14131,-4.5572 -23.66834,-0.014 -16.66995,7.9493 -33.66386,6.4125 -45.67126,-4.1301 l -10.21057,-8.965 -6.3174,5.7508 c -15.32403,13.9498 -29.11237,15.6054 -49.09812,5.8956 l -12.9336,-6.2835 -12.93357,6.2836 c -16.30594,7.9221 -32.37248,8.0176 -45.50283,0.2706 -9.71411,-5.7314 -10.72843,-5.7984 -21.6497,-1.4286 -6.30196,2.5214 -17.63654,4.5845 -25.18796,4.5845 -10.95099,0 -15.08801,-1.4457 -20.44022,-7.1428 -8.0881,-8.6094 -11.79401,-8.9176 -18.47409,-1.5362 -6.92141,7.6481 -22.56202,12.3902 -33.1766,10.0588 -4.82557,-1.0599 -13.32521,-5.9233 -18.88808,-10.8075 -8.7697,-7.6999 -10.5457,-8.2997 -13.35921,-4.5117 -6.2974,8.4786 -19.10264,14.6111 -30.18998,14.4581 -12.557307,-0.1735 -28.20523,-7.1531 -30.718247,-13.7019 -1.351366,-3.5216 -3.028309,-3.0033 -9.138717,2.8247 -14.439623,13.7724 -30.091492,16.452 -46.099654,7.8925 z m 178.344538,-23.5688 c -4.8041,-5.3267 -7.78983,-5.8851 -25.44282,-4.7587 -11,0.7018 -22.67758,2.9495 -25.95018,4.9948 -4.95424,3.0962 -8.30182,2.9629 -20,-0.7964 -23.30783,-7.4902 -37.656721,-7.2518 -47.304721,0.7858 l -6.745098,5.6192 65.442819,0.095 65.44282,0.095 z"
       style="opacity:0.819355;fill:#f3e8e2;stroke-width:2.85714" />
    <path
       transform="scale(0.26458333)"
       id="path90"
       d="M 28.120963,1075.7592 C 15.5954,1070.1723 7.0124515,1060.03 7.0124515,1050.8157 c 0,-4.3252 -1.2857143,-8.6587 -2.8571429,-9.6299 C 2.267486,1040.0191 1.2981657,863.06093 1.2981657,519.58864 V -0.2427281 H 399.86959 798.44102 l 0.10743,410.7142881 c 0.0591,225.89285 0.83543,450.57143 1.72514,499.28571 l 1.61766,88.57143 14.34777,13.3612 14.34775,13.3611 -1.26515,17.4904 c -1.08568,15.0094 -2.56377,18.7882 -10.42008,26.6389 -8.21535,8.2095 -10.84606,9.1392 -25.63269,9.0585 -12.37814,-0.067 -18.71026,-1.6796 -25.451,-6.4794 l -8.97326,-6.3896 -10.60051,7.1938 c -14.44691,9.8039 -33.17729,9.8239 -47.55971,0.051 -5.78143,-3.9286 -11.29095,-7.1428 -12.2434,-7.1428 -0.95246,0 -6.46198,3.2142 -12.2434,7.1428 -12.85932,8.7382 -25.054,9.0789 -43.34312,1.2111 l -13.78868,-5.9317 -11.62715,5.9317 c -14.80677,7.5539 -29.4536,7.5319 -44.66917,-0.067 l -12.01168,-5.999 -11.75886,5.999 c -14.11803,7.2024 -25.08549,7.5707 -40.5998,1.3631 -10.6876,-4.2763 -12.52734,-4.2763 -23.72474,0 -19.25729,7.3544 -34.3412,6.1226 -45.55118,-3.7199 l -9.5166,-8.3557 -12.44134,8.3557 c -15.09466,10.1377 -27.63954,10.7252 -44.90374,2.1031 l -12.51963,-6.2526 -12.86974,6.2526 c -16.04349,7.7945 -32.31997,7.9798 -44.97697,0.512 -9.10803,-5.3739 -10.51026,-5.4651 -21.9511,-1.4285 -19.4173,6.8508 -37.75856,5.7168 -45.78876,-2.8309 -8.13399,-8.6583 -9.49497,-8.7435 -19.65555,-1.2315 -17.22231,12.733 -37.85858,11.3598 -53.75844,-3.5774 l -6.31193,-5.9297 -8.69305,7.3147 c -4.78118,4.0231 -11.3984,8.1734 -14.70493,9.2228 -10.25944,3.2562 -30.384881,-1.3291 -37.280879,-8.4941 l -6.426165,-6.6767 -10.155957,8.0586 c -12.478092,9.9012 -27.105892,12.6416 -39.047446,7.3152 z m 111.965817,-21.3648 c -2.03966,-3.3002 -24.66783,-8.9228 -35.90999,-8.9228 -8.145999,0 -25.735767,6.8849 -25.735767,10.0733 0,0.7454 14.218737,1.3552 31.597187,1.3552 17.38302,0 30.90054,-1.1272 30.04857,-2.5057 z m 61.85098,-3.1078 c -4.82256,-4.0218 -9.99135,-5.1939 -20,-4.5354 -7.42321,0.4884 -16.14386,1.0431 -19.37922,1.2327 -3.23537,0.1897 -8.37823,2.2325 -11.42857,4.5397 -4.98465,3.7701 -2.36451,4.1944 25.88248,4.1906 31.24618,0 31.39083,-0.036 24.92531,-5.4276 z"
       style="opacity:0.819355;fill:#f3e8e2;stroke-width:2.85714" />
    <path
       transform="scale(0.26458333)"
       id="path92"
       d="m 25.109866,1074.0024 c -7.719963,-3.9131 -13.744038,-9.735 -17.142856,-16.5677 -5.0165391,-10.0848 -5.2720548,-32.8885 -5.9846674,-534.106 L 1.2379483,-0.2427281 H 399.83948 798.44102 l 0.27629,409.2857181 c 0.152,225.10714 0.74114,426.64285 1.30914,447.85714 0.56797,21.21428 1.08646,61.48666 1.15214,89.49414 l 0.11943,50.92274 14.65717,13.68949 14.65718,13.6895 -1.278,17.668 c -1.09972,15.2033 -2.55503,18.944 -10.43292,26.8163 -8.21534,8.2095 -10.84606,9.1392 -25.63268,9.0585 -12.37815,-0.067 -18.71026,-1.6796 -25.451,-6.4794 l -8.97326,-6.3896 -10.77043,7.3091 c -13.876,9.4165 -33.78997,9.1768 -48.14757,-0.5794 -5.36449,-3.6454 -10.53303,-6.6279 -11.48549,-6.6279 -0.95245,0 -6.46197,3.2142 -12.2434,7.1428 -12.91097,8.7732 -26.68177,9.1928 -44.40528,1.3528 l -13.08935,-5.79 -10.80294,5.79 c -13.86957,7.4337 -29.97714,7.3591 -45.13054,-0.2088 l -12.01169,-5.999 -11.75885,5.999 c -14.13069,7.2089 -28.3238,7.6531 -41.63992,1.3031 -9.13537,-4.3564 -10.69571,-4.3564 -21.58331,0 -18.81072,7.5265 -35.39355,6.2256 -46.65249,-3.6599 l -9.5166,-8.3557 -12.44134,8.3557 c -14.92606,10.0245 -26.62974,10.6447 -45.73937,2.424 l -13.78869,-5.9318 -12.01643,6.1304 c -13.97511,7.1295 -30.69174,6.9682 -45.21528,-0.4363 -8.53103,-4.3493 -10.73862,-4.4301 -21.10528,-0.7726 -15.64257,5.519 -37.69469,5.3335 -42.41727,-0.3569 -8.13924,-9.8071 -13.74743,-10.4466 -23.87463,-2.7222 -14.67531,11.1934 -32.81386,10.6775 -47.79211,-1.3594 l -11.51495,-9.2536 -8.53203,8.1742 c -7.4009,7.0905 -10.74813,8.1742 -25.24791,8.1742 -12.94094,0 -18.714617,-1.4778 -25.566537,-6.5436 l -8.850657,-6.5436 -9.694546,7.3944 c -13.525214,10.3162 -26.104309,11.6216 -40.699754,4.2236 z m 113.331154,-19.8187 c 0,-2.6646 -6.69773,-4.5576 -25.92474,-7.3274 -9.00724,-1.2975 -16.331343,-0.5188 -23.571426,2.5063 -5.777108,2.4138 -10.503831,4.9264 -10.503831,5.5835 0,0.6571 13.5,1.2895 29.999997,1.4053 16.5,0.116 30,-0.8595 30,-2.1677 z m 65.71429,0.052 c 0,-4.2599 -11.6324,-6.9272 -28.2325,-6.4737 -36.15011,0.9878 -35.17824,9.1384 1.08964,9.1384 14.92857,0 27.14286,-1.1991 27.14286,-2.6646 z"
       style="opacity:0.819355;fill:#f3e8e2;stroke-width:2.85714" />
  </g>
</svg>
